# xmcd
# Track frame offsets:
# 150
# 19774
# 33049
# 45060
# 56714
# 66644
# 78389
# 90692
# 103299
# 115267
# 128113
# 138627
# 153822
# 184623
# 198291
# 211727
# 224177
# 237144
# 249872
# 261646
# 274980
# 287085
# 297951
# 308668
#
# Disc length: 4298 seconds
# Revision: 0
# Processed by: cddbd v1.5.2PL0 Copyright (c) Steve Scherf et al.
# Submitted via: VisiTrax 2.11.3.279 - For more info visit www.synapsa.com
#
DISCID=6510c818
DTITLE=Price, Ray - "San Antonio Rose" and "Night Life"
DYEAR=1962
DGENRE=
TTITLE0=San Antonio Rose
TTITLE1=A Maiden's Prayer
TTITLE2=My Confession
TTITLE3=Whose Heart Are you Breaking Now
TTITLE4=Roly Poly
TTITLE5=Bubbles in My Beer
TTITLE6=Home in San Antone
TTITLE7=You Don't Love Me (But I'll Always Care)
TTITLE8=You Don't Care Whaat Happens To Me
TTITLE9=Time Changes Everything
TTITLE10=The Kind of Love I Can't Forget
TTITLE11=Hang Your Head in Shame
TTITLE12=Introduction and Theme/ Night Life- Medley
TTITLE13=Lonely Street
TTITLE14=The Wild Side of Life
TTITLE15=Sittin' and Thinkin'
TTITLE16=The Twenty-Fourth Hour
TTITLE17=A Girl in the Night
TTITLE18=Pride
TTITLE19=There's No Fool Like a Young Fool
TTITLE20=If She Could See Me Now
TTITLE21=Bright Lights and Blonde-Haired Women
TTITLE22=Are You Sure
TTITLE23=Let Me Talk to You
EXTD=San Antonio Rose 1962\nNight Life 1963
EXTT0=
EXTT1=
EXTT2=
EXTT3=
EXTT4=
EXTT5=
EXTT6=
EXTT7=
EXTT8=
EXTT9=
EXTT10=
EXTT11=
EXTT12=
EXTT13=
EXTT14=
EXTT15=
EXTT16=
EXTT17=
EXTT18=
EXTT19=
EXTT20=
EXTT21=
EXTT22=
EXTT23=
PLAYORDER=
